<svg width="36" height="36" viewBox="0 0 36 36" fill="none" xmlns="http://www.w3.org/2000/svg">
<path d="M18 3C26.2845 3 33 9.7155 33 18C33 26.2845 26.2845 33 18 33C15.2673 33.0042 12.5858 32.2581 10.248 30.843L5.70001 32.181C5.43889 32.2578 5.16189 32.2629 4.89814 32.1956C4.63438 32.1284 4.39362 31.9913 4.20115 31.7989C4.00868 31.6064 3.87162 31.3656 3.80438 31.1019C3.73713 30.8381 3.74219 30.5611 3.81901 30.3L5.15701 25.752C3.74259 23.4139 2.99653 20.7326 3.00001 18C3.00001 9.7155 9.71551 3 18 3ZM18 6C15.8515 5.99961 13.7422 6.57608 11.8925 7.66922C10.0428 8.76236 8.52054 10.3321 7.48466 12.2144C6.44877 14.0968 5.93726 16.2227 6.00355 18.3702C6.06984 20.5178 6.7115 22.6081 7.86151 24.423C8.20201 24.9585 8.31901 25.6335 8.12701 26.283L7.46551 28.5345L9.71701 27.873C10.3665 27.681 11.0415 27.798 11.577 28.1385C13.1495 29.1342 14.932 29.7504 16.7837 29.9386C18.6354 30.1267 20.5055 29.8815 22.2461 29.2224C23.9867 28.5633 25.5501 27.5083 26.8128 26.1409C28.0754 24.7735 29.0027 23.1312 29.5213 21.3437C30.0399 19.5562 30.1356 17.6725 29.8009 15.8417C29.4661 14.0108 28.7101 12.2829 27.5925 10.7946C26.4749 9.30623 25.0265 8.09825 23.3616 7.26612C21.6968 6.434 19.8612 6.00053 18 6ZM12.75 15.75C13.3467 15.75 13.919 15.9871 14.341 16.409C14.763 16.831 15 17.4033 15 18C15 18.5967 14.763 19.169 14.341 19.591C13.919 20.0129 13.3467 20.25 12.75 20.25C12.1533 20.25 11.581 20.0129 11.159 19.591C10.7371 19.169 10.5 18.5967 10.5 18C10.5 17.4033 10.7371 16.831 11.159 16.409C11.581 15.9871 12.1533 15.75 12.75 15.75ZM23.25 15.75C23.8467 15.75 24.419 15.9871 24.841 16.409C25.263 16.831 25.5 17.4033 25.5 18C25.5 18.5967 25.263 19.169 24.841 19.591C24.419 20.0129 23.8467 20.25 23.25 20.25C22.6533 20.25 22.081 20.0129 21.659 19.591C21.2371 19.169 21 18.5967 21 18C21 17.4033 21.2371 16.831 21.659 16.409C22.081 15.9871 22.6533 15.75 23.25 15.75Z" fill="currentColor"/>
</svg>
