<svg width="36" height="36" viewBox="0 0 36 36" fill="none" xmlns="http://www.w3.org/2000/svg">
<path d="M18.0045 31.5C16.1385 31.5 14.3835 31.146 12.7395 30.438C11.0965 29.729 9.667 28.767 8.451 27.552C7.235 26.337 6.2725 24.909 5.5635 23.268C4.8545 21.627 4.5 19.8725 4.5 18.0045C4.5 16.1365 4.8545 14.3815 5.5635 12.7395C6.2715 11.0965 7.232 9.667 8.445 8.451C9.658 7.235 11.0865 6.2725 12.7305 5.5635C14.3745 4.8545 16.1295 4.5 17.9955 4.5C19.8615 4.5 21.6165 4.8545 23.2605 5.5635C24.9035 6.2715 26.333 7.2325 27.549 8.4465C28.765 9.6605 29.7275 11.089 30.4365 12.732C31.1455 14.375 31.5 16.1295 31.5 17.9955C31.5 19.8615 31.146 21.6165 30.438 23.2605C29.73 24.9045 28.768 26.334 27.552 27.549C26.336 28.764 24.908 29.7265 23.268 30.4365C21.628 31.1465 19.8735 31.501 18.0045 31.5ZM18 30C21.35 30 24.1875 28.8375 26.5125 26.5125C28.8375 24.1875 30 21.35 30 18C30 14.65 28.8375 11.8125 26.5125 9.4875C24.1875 7.1625 21.35 6 18 6C14.65 6 11.8125 7.1625 9.4875 9.4875C7.1625 11.8125 6 14.65 6 18C6 21.35 7.1625 24.1875 9.4875 26.5125C11.8125 28.8375 14.65 30 18 30Z" fill="currentColor"/>
</svg>
