<svg width="36" height="36" viewBox="0 0 36 36" fill="none" xmlns="http://www.w3.org/2000/svg">
<path d="M18 20.1L10.65 27.4499C10.375 27.7249 10.025 27.8625 9.59995 27.8625C9.17495 27.8625 8.82495 27.7249 8.54995 27.4499C8.27495 27.1749 8.13745 26.825 8.13745 26.4C8.13745 25.975 8.27495 25.625 8.54995 25.35L15.9 18L8.54995 10.65C8.27495 10.375 8.13745 10.025 8.13745 9.59995C8.13745 9.17495 8.27495 8.82495 8.54995 8.54995C8.82495 8.27495 9.17495 8.13745 9.59995 8.13745C10.025 8.13745 10.375 8.27495 10.65 8.54995L18 15.9L25.35 8.54995C25.625 8.27495 25.975 8.13745 26.4 8.13745C26.825 8.13745 27.1749 8.27495 27.4499 8.54995C27.7249 8.82495 27.8625 9.17495 27.8625 9.59995C27.8625 10.025 27.7249 10.375 27.4499 10.65L20.1 18L27.4499 25.35C27.7249 25.625 27.8625 25.975 27.8625 26.4C27.8625 26.825 27.7249 27.1749 27.4499 27.4499C27.1749 27.7249 26.825 27.8625 26.4 27.8625C25.975 27.8625 25.625 27.7249 25.35 27.4499L18 20.1Z" fill="currentColor"/>
</svg>
