<svg width="26" height="26" viewBox="0 0 26 26" fill="none" xmlns="http://www.w3.org/2000/svg">
<path opacity="0.2" d="M22.75 13C22.75 14.9284 22.1782 16.8134 21.1068 18.4168C20.0355 20.0202 18.5127 21.2699 16.7312 22.0078C14.9496 22.7458 12.9892 22.9389 11.0979 22.5627C9.20656 22.1864 7.46927 21.2579 6.10571 19.8943C4.74215 18.5307 3.81355 16.7934 3.43735 14.9021C3.06114 13.0108 3.25422 11.0504 3.99218 9.26884C4.73013 7.48726 5.97982 5.96451 7.58319 4.89317C9.18657 3.82183 11.0716 3.25 13 3.25C15.5859 3.25 18.0658 4.27723 19.8943 6.10571C21.7228 7.93419 22.75 10.4141 22.75 13Z" fill="#4CEB6E"/>
<path d="M17.6373 9.98766C17.7129 10.0631 17.7728 10.1527 17.8137 10.2514C17.8546 10.35 17.8756 10.4557 17.8756 10.5625C17.8756 10.6693 17.8546 10.775 17.8137 10.8736C17.7728 10.9723 17.7129 11.0619 17.6373 11.1373L11.9498 16.8248C11.8744 16.9004 11.7848 16.9603 11.6861 17.0012C11.5875 17.0421 11.4818 17.0631 11.375 17.0631C11.2682 17.0631 11.1625 17.0421 11.0639 17.0012C10.9652 16.9603 10.8756 16.9004 10.8002 16.8248L8.36266 14.3873C8.2102 14.2349 8.12455 14.0281 8.12455 13.8125C8.12455 13.5969 8.2102 13.3901 8.36266 13.2377C8.51512 13.0852 8.7219 12.9995 8.9375 12.9995C9.15311 12.9995 9.35989 13.0852 9.51235 13.2377L11.375 15.1013L16.4877 9.98766C16.5631 9.91211 16.6527 9.85218 16.7514 9.81129C16.85 9.77041 16.9557 9.74936 17.0625 9.74936C17.1693 9.74936 17.275 9.77041 17.3736 9.81129C17.4723 9.85218 17.5619 9.91211 17.6373 9.98766ZM23.5625 13C23.5625 15.0891 22.943 17.1312 21.7824 18.8682C20.6218 20.6052 18.9721 21.959 17.0421 22.7585C15.1121 23.5579 12.9883 23.7671 10.9394 23.3595C8.89044 22.952 7.00838 21.946 5.53119 20.4688C4.054 18.9916 3.04802 17.1096 2.64046 15.0606C2.2329 13.0117 2.44208 10.8879 3.24153 8.95791C4.04098 7.02786 5.3948 5.37822 7.13179 4.2176C8.86879 3.05698 10.9109 2.4375 13 2.4375C15.8004 2.44046 18.4853 3.55424 20.4656 5.53445C22.4458 7.51466 23.5595 10.1996 23.5625 13ZM21.9375 13C21.9375 11.2323 21.4133 9.50435 20.4313 8.03459C19.4492 6.56483 18.0534 5.41928 16.4202 4.74283C14.7871 4.06637 12.9901 3.88938 11.2564 4.23423C9.52268 4.57909 7.93017 5.4303 6.68024 6.68023C5.43031 7.93016 4.57909 9.52268 4.23424 11.2564C3.88938 12.9901 4.06637 14.7871 4.74283 16.4202C5.41929 18.0533 6.56483 19.4492 8.0346 20.4313C9.50436 21.4133 11.2323 21.9375 13 21.9375C15.3696 21.9348 17.6413 20.9923 19.3168 19.3168C20.9923 17.6413 21.9348 15.3695 21.9375 13Z" fill="#4CEB6E"/>
</svg>
