<svg width="100" height="100" viewBox="0 0 100 100" fill="none" xmlns="http://www.w3.org/2000/svg">
<path d="M92.4812 92.4813V45.6079C92.4812 -11.4749 7.52031 -10.5953 7.52031 45.6079V92.4797H3.125V96.8751H96.875V92.4797L92.4812 92.4813ZM85.1047 92.4813H14.8984V49.4922C14.8984 -2.05307 85.1047 -2.85932 85.1047 49.4922V92.4813Z" fill="white"/>
<path d="M21.5469 47.289H45.9203V18.3827C33.7 20.1983 22.5078 29.889 21.5469 47.289ZM21.4688 55.453H45.9188V84.6718H21.4688V55.453ZM54.0828 18.3374V47.289H71.9125V55.453H54.0828V84.6718H78.5312V67.3749H83.6328V43.9374H78.1406C76.0375 28.3999 65.5125 19.9046 54.0828 18.3374ZM73.3781 46.1343H82.1672V65.178H73.3781V46.1343Z" fill="white"/>
<path d="M79.2375 58.3904C79.2385 58.1396 79.1752 57.8927 79.0536 57.6734C78.9319 57.4541 78.756 57.2696 78.5427 57.1377C78.3294 57.0058 78.0858 56.9309 77.8352 56.9201C77.5846 56.9092 77.3354 56.9629 77.1115 57.0759C76.8876 57.1889 76.6965 57.3575 76.5563 57.5655C76.4162 57.7735 76.3318 58.014 76.3112 58.2639C76.2906 58.5139 76.3345 58.765 76.4387 58.9931C76.5429 59.2213 76.7039 59.4189 76.9062 59.567L76.2937 63.4811H79.25L78.6375 59.567C78.8233 59.4322 78.9746 59.2553 79.0789 59.0508C79.1832 58.8463 79.2375 58.62 79.2375 58.3904ZM77.7734 46.9092C76.6566 46.9092 75.5856 47.3528 74.7959 48.1425C74.0061 48.9322 73.5625 50.0033 73.5625 51.1201C73.5989 52.212 74.0583 53.247 74.8436 54.0065C75.6289 54.766 76.6786 55.1906 77.7711 55.1906C78.8636 55.1906 79.9133 54.766 80.6986 54.0065C81.4839 53.247 81.9432 52.212 81.9797 51.1201C81.9807 50.5672 81.8726 50.0196 81.6617 49.5085C81.4507 48.9975 81.141 48.5331 80.7503 48.1419C80.3595 47.7507 79.8955 47.4405 79.3847 47.229C78.8739 47.0174 78.3263 46.9088 77.7734 46.9092ZM77.7734 54.0467C76.9964 54.0471 76.2511 53.7388 75.7014 53.1897C75.1517 52.6406 74.8426 51.8956 74.8422 51.1186C74.8418 50.3416 75.15 49.5962 75.6992 49.0465C76.2483 48.4968 76.9933 48.1877 77.7703 48.1873C78.155 48.1871 78.536 48.2627 78.8916 48.4097C79.2471 48.5568 79.5702 48.7724 79.8424 49.0443C80.1146 49.3162 80.3305 49.639 80.478 49.9944C80.6254 50.3498 80.7014 50.7307 80.7016 51.1154C80.7018 51.5002 80.6262 51.8812 80.4791 52.2367C80.3321 52.5922 80.1165 52.9153 79.8446 53.1875C79.5727 53.4597 79.2498 53.6757 78.8945 53.8231C78.5391 53.9705 78.1582 54.0465 77.7734 54.0467Z" fill="white"/>
</svg>
