<svg width="30" height="30" viewBox="0 0 30 30" fill="none" xmlns="http://www.w3.org/2000/svg">
<path d="M25 15C25 12.3478 23.9464 9.8043 22.0711 7.92893C20.1957 6.05357 17.6522 5 15 5C12.3478 5 9.8043 6.05357 7.92893 7.92893C6.05357 9.8043 5 12.3478 5 15C5 17.6522 6.05357 20.1957 7.92893 22.0711C9.8043 23.9464 12.3478 25 15 25C17.6522 25 20.1957 23.9464 22.0711 22.0711C23.9464 20.1957 25 17.6522 25 15ZM27.5 15C27.5 18.3152 26.183 21.4946 23.8388 23.8388C21.4946 26.183 18.3152 27.5 15 27.5C13.3585 27.5 11.733 27.1767 10.2165 26.5485C8.69989 25.9203 7.3219 24.9996 6.16116 23.8388C3.81696 21.4946 2.5 18.3152 2.5 15C2.5 11.6848 3.81696 8.50537 6.16116 6.16116C8.50537 3.81696 11.6848 2.5 15 2.5C16.6415 2.5 18.267 2.82332 19.7835 3.45151C21.3001 4.07969 22.6781 5.00043 23.8388 6.16116C24.9996 7.3219 25.9203 8.69989 26.5485 10.2165C27.1767 11.733 27.5 13.3585 27.5 15ZM12.5 11.875C12.5 12.875 11.625 13.75 10.625 13.75C9.625 13.75 8.75 12.875 8.75 11.875C8.75 10.875 9.625 10 10.625 10C11.625 10 12.5 10.875 12.5 11.875ZM21.25 11.875C21.25 12.875 20.375 13.75 19.375 13.75C18.375 13.75 17.5 12.875 17.5 11.875C17.5 10.875 18.375 10 19.375 10C20.375 10 21.25 10.875 21.25 11.875ZM15 21.5375C12.8125 21.5375 10.8875 20.625 9.7625 19.275L11.5375 17.5C12.1 18.4 13.4375 19.0375 15 19.0375C16.5625 19.0375 17.9 18.4 18.4625 17.5L20.2375 19.275C19.1125 20.625 17.1875 21.5375 15 21.5375Z" fill="currentColor"/>
</svg>
