<svg width="36" height="36" viewBox="0 0 36 36" fill="none" xmlns="http://www.w3.org/2000/svg">
<path d="M31.8642 10.4342L25.7707 3.44401C25.2184 2.81049 24.4695 2.45459 23.6885 2.45459C22.9076 2.45459 22.1586 2.81049 21.6063 3.44401L4.13574 23.4886C3.86213 23.8024 3.64509 24.175 3.497 24.5851C3.34892 24.9952 3.27271 25.4347 3.27271 25.8786C3.27271 26.3225 3.34892 26.7621 3.497 27.1721C3.64509 27.5822 3.86213 27.9548 4.13574 28.2687L8.56228 33.3478C8.61702 33.4105 8.682 33.4603 8.75351 33.4942C8.82501 33.5281 8.90164 33.5456 8.97902 33.5455H30.9586C31.1148 33.5455 31.2646 33.4743 31.3751 33.3475C31.4856 33.2208 31.5476 33.0489 31.5476 32.8696C31.5476 32.6904 31.4856 32.5185 31.3751 32.3917C31.2646 32.265 31.1148 32.1938 30.9586 32.1938H17.0664L31.8642 15.2143C32.1378 14.9004 32.3549 14.5278 32.5029 14.1178C32.651 13.7077 32.7272 13.2681 32.7272 12.8242C32.7272 12.3803 32.651 11.9408 32.5029 11.5307C32.3549 11.1206 32.1378 10.748 31.8642 10.4342ZM15.3994 32.1938H9.22346L4.96921 27.3123C4.80447 27.1239 4.67376 26.9001 4.58457 26.6536C4.49538 26.4072 4.44947 26.1429 4.44947 25.8761C4.44947 25.6092 4.49538 25.345 4.58457 25.0985C4.67376 24.8521 4.80447 24.6282 4.96921 24.4399L13.2878 14.9L21.8802 24.7592L15.3994 32.1938ZM31.0307 14.2579L22.7122 23.8029L14.1198 13.9453L22.4383 4.40206C22.6025 4.21303 22.7975 4.06305 23.0123 3.96071C23.2271 3.85837 23.4574 3.8057 23.69 3.8057C23.9226 3.8057 24.1528 3.85837 24.3676 3.96071C24.5824 4.06305 24.7775 4.21303 24.9417 4.40206L31.0337 11.3922C31.3642 11.7729 31.5496 12.2884 31.549 12.8258C31.5485 13.3631 31.3621 13.8782 31.0307 14.2579Z" fill="white"/>
</svg>
