<svg width="36" height="36" viewBox="0 0 36 36" fill="none" xmlns="http://www.w3.org/2000/svg">
<path d="M8.424 30C7.733 30 7.1565 29.769 6.6945 29.307C6.2325 28.845 6.001 28.268 6 27.576V22.905H7.5V27.5775C7.5 27.8085 7.596 28.0205 7.788 28.2135C7.98 28.4065 8.1915 28.5025 8.4225 28.5015H27.5775C27.8075 28.5015 28.019 28.4055 28.212 28.2135C28.405 28.0215 28.501 27.8095 28.5 27.5775V8.424C28.5 8.193 28.404 7.981 28.212 7.788C28.02 7.595 27.808 7.499 27.576 7.5H8.424C8.193 7.5 7.981 7.596 7.788 7.788C7.595 7.98 7.499 8.192 7.5 8.424V13.095H6V8.424C6 7.733 6.2315 7.1565 6.6945 6.6945C7.1575 6.2325 7.734 6.001 8.424 6H27.5775C28.2675 6 28.844 6.2315 29.307 6.6945C29.77 7.1575 30.001 7.734 30 8.424V27.5775C30 28.2675 29.769 28.844 29.307 29.307C28.845 29.77 28.268 30.001 27.576 30H8.424ZM16.269 23.8845L15.2085 22.8045L19.263 18.75H6V17.25H19.263L15.21 13.194L16.2705 12.1155L22.155 18L16.269 23.8845Z" fill="white"/>
</svg>
