<svg width="51" height="51" viewBox="0 0 51 51" fill="none" xmlns="http://www.w3.org/2000/svg">
<path fill-rule="evenodd" clip-rule="evenodd" d="M14.0416 48.4167C17.0805 48.4167 19.995 47.2095 22.1439 45.0606C24.2927 42.9117 25.4999 39.9973 25.4999 36.9583C25.4999 33.9194 24.2927 31.0049 22.1439 28.8561C19.995 26.7072 17.0805 25.5 14.0416 25.5C11.0026 25.5 8.08817 26.7072 5.93932 28.8561C3.79047 31.0049 2.58325 33.9194 2.58325 36.9583C2.58325 39.9973 3.79047 42.9117 5.93932 45.0606C8.08817 47.2095 11.0026 48.4167 14.0416 48.4167ZM14.0416 29.6812C14.3179 29.6812 14.5828 29.791 14.7782 29.9863C14.9735 30.1817 15.0833 30.4466 15.0833 30.7229V35.9167H20.277C20.5533 35.9167 20.8182 36.0264 21.0136 36.2218C21.2089 36.4171 21.3187 36.6821 21.3187 36.9583C21.3187 37.2346 21.2089 37.4996 21.0136 37.6949C20.8182 37.8903 20.5533 38 20.277 38H15.0833V43.1937C15.0833 43.47 14.9735 43.735 14.7782 43.9303C14.5828 44.1257 14.3179 44.2354 14.0416 44.2354C13.7653 44.2354 13.5004 44.1257 13.305 43.9303C13.1097 43.735 12.9999 43.47 12.9999 43.1937V38H7.80617C7.5299 38 7.26495 37.8903 7.0696 37.6949C6.87425 37.4996 6.7645 37.2346 6.7645 36.9583C6.7645 36.6821 6.87425 36.4171 7.0696 36.2218C7.26495 36.0264 7.5299 35.9167 7.80617 35.9167H12.9999V30.7229C12.9999 30.4466 13.1097 30.1817 13.305 29.9863C13.5004 29.791 13.7653 29.6812 14.0416 29.6812Z" fill="#EB4C60"/>
<path d="M9.44165 21.854V13.5207C9.44165 11.5868 10.2099 9.73214 11.5773 8.36468C12.9448 6.99723 14.7994 6.229 16.7333 6.229H21.8333C22.8732 6.22892 23.901 6.45126 24.8479 6.88109M24.8479 6.88109C25.6443 7.24317 26.3711 7.74563 26.9896 8.36442L39.4229 20.8019C40.0479 21.4269 40.5479 22.1478 40.9041 22.9373M24.8479 6.88109L24.85 18.7707C24.85 19.8757 25.289 20.9355 26.0704 21.717C26.8518 22.4984 27.9116 22.9373 29.0166 22.9373H40.9041M29.1458 44.7707H34.2667C36.2005 44.7707 38.0552 44.0024 39.4226 42.635C40.7901 41.2675 41.5583 39.4129 41.5583 37.479V25.9582C41.5583 24.9061 41.3312 23.8769 40.9041 22.9373" stroke="#EB4C60" stroke-width="1.5" stroke-linecap="round" stroke-linejoin="round"/>
</svg>
