<svg width="36" height="36" viewBox="0 0 36 36" fill="none" xmlns="http://www.w3.org/2000/svg">
<path d="M5.625 4.125V9.375C5.625 10.7674 6.17812 12.1027 7.16269 13.0873C8.14726 14.0719 9.48261 14.625 10.875 14.625H25.125C26.5174 14.625 27.8527 14.0719 28.8373 13.0873C29.8219 12.1027 30.375 10.7674 30.375 9.375V4.125M8.625 14.625H27.375V17.325C27.375 18.2002 27.0273 19.0396 26.4085 19.6585C25.7896 20.2773 24.9502 20.625 24.075 20.625H11.925C11.0498 20.625 10.2104 20.2773 9.59155 19.6585C8.97268 19.0396 8.625 18.2002 8.625 17.325V14.625ZM24.375 20.625H11.625V29.1195C11.6249 29.4314 11.6997 29.7389 11.8431 30.0159C11.9864 30.293 12.1941 30.5316 12.4488 30.7118C12.7035 30.8919 12.9976 31.0084 13.3066 31.0513C13.6156 31.0942 13.9304 31.0624 14.2245 30.9585L22.374 28.0815C22.9592 27.8748 23.4659 27.4918 23.8242 26.9851C24.1826 26.4784 24.375 25.8731 24.375 25.2525V20.625Z" stroke="currentColor" stroke-width="1.5" stroke-linecap="round" stroke-linejoin="round"/>
</svg>
