<svg width="36" height="36" viewBox="0 0 36 36" fill="none" xmlns="http://www.w3.org/2000/svg">
<path fill-rule="evenodd" clip-rule="evenodd" d="M19.143 7.79988C20.3519 6.62884 21.9727 5.98 23.6557 5.99337C25.3387 6.00674 26.9489 6.68124 28.139 7.87134C29.3291 9.06144 30.0036 10.6717 30.017 12.3547C30.0304 14.0377 29.3815 15.6585 28.2105 16.8674L28.2015 16.8764L24.804 20.2739C24.1538 20.9236 23.3715 21.426 22.5102 21.7471C21.6488 22.0682 20.7286 22.2004 19.8117 22.1348C18.8948 22.0692 18.0027 21.8074 17.1959 21.367C16.389 20.9267 15.6862 20.318 15.135 19.5824C15.0157 19.4232 14.9644 19.2232 14.9925 19.0263C15.0207 18.8294 15.1259 18.6517 15.285 18.5324C15.4441 18.413 15.6442 18.3618 15.8411 18.3899C16.038 18.418 16.2157 18.5232 16.335 18.6824C16.7569 19.2466 17.2952 19.7134 17.9134 20.0512C18.5316 20.3891 19.2153 20.59 19.9179 20.6403C20.6206 20.6907 21.3259 20.5893 21.986 20.3431C22.6461 20.0969 23.2455 19.7116 23.7435 19.2134L27.1365 15.8204C28.0253 14.8927 28.5153 13.6537 28.5015 12.369C28.4877 11.0843 27.9712 9.85616 27.0626 8.94779C26.154 8.03942 24.9258 7.52314 23.6411 7.5096C22.3564 7.49606 21.1175 7.98635 20.19 8.87538L18.246 10.8074C18.1766 10.8788 18.0937 10.9357 18.0021 10.9747C17.9105 11.0137 17.812 11.0341 17.7124 11.0347C17.6129 11.0353 17.5142 11.016 17.4221 10.978C17.3301 10.9401 17.2465 10.8841 17.1763 10.8135C17.1061 10.7429 17.0506 10.659 17.0132 10.5668C16.9757 10.4745 16.957 10.3757 16.9582 10.2761C16.9593 10.1766 16.9803 10.0782 17.0198 9.98685C17.0594 9.89546 17.1167 9.81287 17.1885 9.74388L19.143 7.79988ZM13.488 14.2499C14.7867 13.7653 16.2075 13.7146 17.5374 14.1054C18.8673 14.4961 20.0348 15.3073 20.865 16.4174C20.9844 16.5765 21.0356 16.7765 21.0075 16.9734C20.9793 17.1704 20.8741 17.348 20.715 17.4674C20.5559 17.5867 20.3558 17.638 20.1589 17.6098C19.962 17.5817 19.7843 17.4765 19.665 17.3174C19.2428 16.7534 18.7043 16.2867 18.086 15.949C17.4677 15.6113 16.784 15.4105 16.0812 15.3601C15.3785 15.3098 14.6732 15.4111 14.013 15.6571C13.3529 15.9032 12.7533 16.2883 12.255 16.7864L8.865 20.1794C7.98302 21.1082 7.49869 22.3448 7.51526 23.6256C7.53182 24.9063 8.04797 26.13 8.95368 27.0357C9.8594 27.9414 11.083 28.4576 12.3638 28.4741C13.6446 28.4907 14.8812 28.0064 15.81 27.1244L17.7435 25.1939C17.885 25.0573 18.0744 24.9817 18.2711 24.9834C18.4677 24.9851 18.6558 25.064 18.7949 25.203C18.9339 25.3421 19.0128 25.5302 19.0145 25.7268C19.0162 25.9235 18.9406 26.1129 18.804 26.2544L16.857 28.1999C15.6481 29.3709 14.0274 30.0198 12.3443 30.0064C10.6613 29.993 9.05107 29.3185 7.86097 28.1284C6.67087 26.9383 5.99636 25.328 5.98299 23.645C5.96962 21.962 6.61846 20.3412 7.7895 19.1324L7.7985 19.1234L11.196 15.7259C11.8466 15.076 12.6285 14.5728 13.4895 14.2499" fill="white"/>
</svg>
