<svg width="36" height="36" viewBox="0 0 36 36" fill="none" xmlns="http://www.w3.org/2000/svg">
<path d="M27 2.99992L27 14.6661C27 16.8642 27 17.9639 26.6775 19.0005C26.3565 20.0385 25.7325 20.9528 24.48 22.7829L20.496 28.6118C19.368 30.2664 18.8025 31.0908 18 31.0908C17.1975 31.0908 16.632 30.2649 15.504 28.6132L11.52 22.7829C10.269 20.9528 9.645 20.0385 9.3225 19.0005C9 17.9639 9 16.8656 9 14.6661L9 2.99992" stroke="currentColor" stroke-width="1.5" stroke-linecap="round" stroke-linejoin="round"/>
<path d="M25.5 18.4497C24.552 17.996 23.2665 17.0831 22.08 17.0451C20.5515 17.0002 19.5195 18.2573 18 18.2573C16.4805 18.2573 15.4485 17.0002 13.92 17.0465C12.7335 17.0831 11.4465 17.996 10.5 18.4497M18 17.0451L18 2.99969M21 26.877L15 26.877" stroke="currentColor" stroke-width="1.5" stroke-linecap="round" stroke-linejoin="round"/>
</svg>
