<svg width="36" height="36" viewBox="0 0 36 36" fill="none" xmlns="http://www.w3.org/2000/svg">
<path d="M12 6C12 6.79565 11.6839 7.55871 11.1213 8.12132C10.5587 8.68393 9.79565 9 9 9C8.20435 9 7.44129 8.68393 6.87868 8.12132C6.31607 7.55871 6 6.79565 6 6C6 5.20435 6.31607 4.44129 6.87868 3.87868C7.44129 3.31607 8.20435 3 9 3C9.79565 3 10.5587 3.31607 11.1213 3.87868C11.6839 4.44129 12 5.20435 12 6ZM7.5 24V33H4.5V15C4.49986 14.1127 4.76205 13.2451 5.2536 12.5064C5.74516 11.7677 6.44413 11.1908 7.26265 10.8482C8.08117 10.5056 8.9827 10.4127 9.8539 10.5811C10.7251 10.7494 11.5271 11.1716 12.159 11.7945L15.72 15.159L19.1895 11.6895L21.3105 13.8105L15.78 19.341L13.5 17.19V33H10.5V24H7.5ZM15 7.5H28.5V21H15V24H21.5475L25.7835 33H29.0985L24.864 24H30C30.3978 24 30.7794 23.842 31.0607 23.5607C31.342 23.2794 31.5 22.8978 31.5 22.5V6C31.5 5.60218 31.342 5.22064 31.0607 4.93934C30.7794 4.65804 30.3978 4.5 30 4.5H15V7.5Z" fill="currentColor"/>
</svg>
